<?xml version="1.0" encoding="UTF-8"?> <svg xmlns="http://www.w3.org/2000/svg" xmlns:xlink="http://www.w3.org/1999/xlink" viewBox="0 0 163.91 45.83"> <defs> <style>.belton-logo-1{fill:#737373;}.belton-logo-2{fill:url(#linear-gradient);}.belton-logo-3{fill:url(#linear-gradient-2);}.belton-logo-4{fill:#b3b3b3;}.belton-logo-5{fill:url(#linear-gradient-3);}.belton-logo-6{fill:url(#linear-gradient-4);}.belton-logo-7{fill:url(#linear-gradient-5);}.belton-logo-8{fill:#c6c6c6;}</style> <linearGradient id="linear-gradient" x1="-839.54" y1="534.84" x2="-838.74" y2="533.8" gradientTransform="matrix(23.48, 0, 0, -17.67, 19722.21, 9452.39)" gradientUnits="userSpaceOnUse"> <stop offset="0" stop-color="#ccc"></stop> <stop offset="0.48" stop-color="#bdbdbd"></stop> <stop offset="0.66" stop-color="#c6c6c6"></stop> <stop offset="1" stop-color="#c6c6c6"></stop> </linearGradient> <linearGradient id="linear-gradient-2" x1="-839.24" y1="537.8" x2="-838.45" y2="536.76" gradientTransform="matrix(23.3, 0, 0, -19.67, 19554.38, 10580.6)" gradientUnits="userSpaceOnUse"> <stop offset="0" stop-color="#ccc"></stop> <stop offset="0.19" stop-color="#ccc"></stop> <stop offset="0.43" stop-color="#a8a8a6"></stop> <stop offset="0.61" stop-color="#c6c6c6"></stop> <stop offset="1" stop-color="#c6c6c6"></stop> </linearGradient> <linearGradient id="linear-gradient-3" x1="-838.96" y1="546.01" x2="-839.96" y2="546.01" gradientTransform="matrix(23.68, 0, 0, -29.5, 19890.97, 16119.73)" gradientUnits="userSpaceOnUse"> <stop offset="0" stop-color="#bfe4a1"></stop> <stop offset="0.15" stop-color="#bfe4a1"></stop> <stop offset="1" stop-color="#69c13c"></stop> </linearGradient> <linearGradient id="linear-gradient-4" x1="-838.02" y1="545.65" x2="-839.02" y2="545.65" gradientTransform="matrix(23.09, 0, 0, -28.91, 19380.14, 15792.92)" gradientUnits="userSpaceOnUse"> <stop offset="0" stop-color="#619fd7"></stop> <stop offset="0.26" stop-color="#619fd7"></stop> <stop offset="1" stop-color="#1365c3"></stop> </linearGradient> <linearGradient id="linear-gradient-5" x1="-816.47" y1="498.82" x2="-815.71" y2="497.95" gradientTransform="matrix(14.52, 0, 0, -7.92, 11859.61, 3951.37)" gradientUnits="userSpaceOnUse"> <stop offset="0" stop-color="#ccc"></stop> <stop offset="1" stop-color="#bebebe"></stop> </linearGradient> </defs> <title>belton-logo</title> <g id="Layer_2" data-name="Layer 2"> <g id="Layer_1-2" data-name="Layer 1"> <rect class="belton-logo-1" x="97.06" y="36.19" width="1.2" height="9.49"></rect> <path class="belton-logo-1" d="M100.34,45.67V36.19h1.31l3,4.8a27,27,0,0,1,1.67,3.08h0c-.11-1.27-.14-2.42-.14-3.9v-4h1.13v9.49h-1.21l-3-4.81a30.27,30.27,0,0,1-1.74-3.17h0c.07,1.2.1,2.34.1,3.91v4.05Z"></path> <path class="belton-logo-1" d="M115.74,37.3A5.26,5.26,0,0,0,112,36.12a16.84,16.84,0,0,0-2.55.2v9.33a19,19,0,0,0,2.18.11,5.66,5.66,0,0,0,4.11-1.37,5.07,5.07,0,0,0,1.34-3.69A4.41,4.41,0,0,0,115.74,37.3Zm-3.91,7.47a7.46,7.46,0,0,1-1.21-.07V37.21a6.71,6.71,0,0,1,1.41-.13c2.54,0,3.78,1.42,3.77,3.66C115.8,43.31,114.4,44.77,111.83,44.77Z"></path> <path class="belton-logo-1" d="M119.78,36.19V41.8c0,2.13.92,3,2.17,3s2.26-.93,2.26-3V36.19h1.21v5.53c0,2.91-1.5,4.11-3.52,4.11s-3.34-1.11-3.34-4.05V36.19Z"></path> <path class="belton-logo-1" d="M127.14,44.18a4.19,4.19,0,0,0,2.15.62c1.23,0,1.95-.66,1.95-1.62s-.5-1.39-1.75-1.89C128,40.75,127,39.94,127,38.61s1.2-2.58,3-2.58a4.16,4.16,0,0,1,2.06.46l-.33,1A3.65,3.65,0,0,0,130,37c-1.27,0-1.75.77-1.75,1.42,0,.89.57,1.32,1.85,1.83,1.57.62,2.37,1.39,2.37,2.79s-1.06,2.73-3.26,2.73a4.73,4.73,0,0,1-2.37-.61Z"></path> <polygon class="belton-logo-1" points="135.98 37.23 133.15 37.23 133.15 36.19 140.04 36.19 140.04 37.23 137.2 37.23 137.2 45.67 135.98 45.67 135.98 37.23"></polygon> <path class="belton-logo-1" d="M146.48,43.07a2.36,2.36,0,0,0-1.37-1.91v0a2.49,2.49,0,0,0,1.75-2.42,2.39,2.39,0,0,0-.73-1.8,3.75,3.75,0,0,0-2.69-.77,12.26,12.26,0,0,0-2.31.2v9.36h1.2V41.56h1.13c1.09,0,1.59.53,1.86,1.84a12.47,12.47,0,0,0,.62,2.27h1.24A15.33,15.33,0,0,1,146.48,43.07Zm-2.91-2.44h-1.23V37.17a4.84,4.84,0,0,1,1.19-.11c1.27,0,2.14.55,2.14,1.77S144.85,40.63,143.57,40.63Z"></path> <rect class="belton-logo-1" x="148.65" y="36.19" width="1.2" height="9.49"></rect> <polygon class="belton-logo-1" points="156.74 41.23 153.13 41.23 153.13 44.65 157.16 44.65 157.16 45.67 151.92 45.67 151.92 36.19 156.95 36.19 156.95 37.21 153.13 37.21 153.13 40.21 156.74 40.21 156.74 41.23"></polygon> <path class="belton-logo-1" d="M158.58,44.18a4.19,4.19,0,0,0,2.15.62c1.23,0,1.95-.66,1.95-1.62s-.5-1.39-1.75-1.89c-1.52-.55-2.46-1.35-2.46-2.69s1.2-2.58,3-2.58a4.16,4.16,0,0,1,2.06.46l-.33,1a3.65,3.65,0,0,0-1.77-.45c-1.27,0-1.75.77-1.75,1.42,0,.89.57,1.32,1.85,1.83,1.57.62,2.37,1.39,2.37,2.79s-1.06,2.73-3.26,2.73a4.73,4.73,0,0,1-2.37-.61Z"></path> <g id="Icon"> <path id="Fill-20" class="belton-logo-2" d="M5.89,4.66C7.14,4,11.2,5.38,14.61,8.1h0A57,57,0,0,1,25.92,20.24h0a38.64,38.64,0,0,1,3.44-2.34h0c-2.26-3.21-8.15-10-13.74-13.52h0a10.24,10.24,0,0,0-5.4-1.81h0A5,5,0,0,0,5.89,4.66"></path> <path id="Fill-22" class="belton-logo-3" d="M.59,7.64c1.85-1.15,4.36.65,8,3.77h0c5.19,4.45,7.78,7.65,12.22,13.48h0a21.58,21.58,0,0,1,3.07-3.1h0c-2.26-3.21-8.73-11-14.3-14.5h0A10.79,10.79,0,0,0,4,5.22H4A3.36,3.36,0,0,0,.59,7.64"></path> <path id="Fill-25" class="belton-logo-4" d="M3.55,8.31c-.63-.59-2.37-1.06-3.22,0a2.09,2.09,0,0,0,1.26,3.1c-.43-1.12-.15-3.29,2-3.1"></path> <path id="Fill-28" class="belton-logo-4" d="M13.78,29.5c-.72,1-1.18,3.9.47,4.82s4.14,0,4.14-2.07c-1.5.79-5.09.09-4.61-2.75"></path> <path id="Fill-31" class="belton-logo-5" d="M20.26,0c-4.51,3.15-11,8.19-15.42,15.82h0c-4.49,7.84,1.08,12.73,3,13.67h0c-1.11-2-.18-8.06,3.59-12.73h0c3.77-4.67,6.73-7.3,15.37-13.48h0A31.07,31.07,0,0,0,20.26,0Z"></path> <path id="Fill-33" class="belton-logo-6" d="M12.22,20.29c-7.29,9.66-1.24,13.84.89,13.84h0c-2.42-1.7,1.13-8.11,4.84-12h0A146.1,146.1,0,0,1,31.81,9.89h0a12.2,12.2,0,0,0-3.3-4.67h0C24.21,8.68,18,12.68,12.22,20.29"></path> <path id="Fill-35" class="belton-logo-7" d="M5.89,4.66C7.14,4,11.2,5.38,14.61,8.1h0c.93.74,1.86,1.52,2.81,2.39h0L20.4,8a37.13,37.13,0,0,0-4.78-3.66h0a10.24,10.24,0,0,0-5.4-1.81h0A5,5,0,0,0,5.89,4.66"></path> <path id="Fill-37" class="belton-logo-8" d="M14.67,17.28c2,2.18,3.8,4.53,6.14,7.61h0a21.58,21.58,0,0,1,3.07-3.1h0a74.82,74.82,0,0,0-6.32-7.56h0a11.81,11.81,0,0,0-2.9,3.05"></path> </g> <path class="belton-logo-1" d="M56.07,20.51a7.58,7.58,0,0,0-3-2.57l.59-.52a7.12,7.12,0,0,0,1-1.16,7,7,0,0,0,.84-1.63,6.44,6.44,0,0,0,.34-2.21c0-.18,0-.49-.06-1a6.43,6.43,0,0,0-.34-1.53,8,8,0,0,0-.87-1.73,6.47,6.47,0,0,0-1.62-1.67A8.68,8.68,0,0,0,50.37,5.3a12.43,12.43,0,0,0-3.68-.48h-7V33h7.71c.69,0,1.33,0,1.92-.06a11.76,11.76,0,0,0,1.7-.23,9.21,9.21,0,0,0,1.56-.48,11.49,11.49,0,0,0,1.58-.81,7.07,7.07,0,0,0,2.35-2.76,8.53,8.53,0,0,0,.87-3.83A7.41,7.41,0,0,0,56.07,20.51ZM42.8,7.78h3.41a11.91,11.91,0,0,1,3.33.38,4.19,4.19,0,0,1,2,1.26,5.75,5.75,0,0,1,.79,1.3,4,4,0,0,1,.29,1.59A4.28,4.28,0,0,1,52,14.49,3.94,3.94,0,0,1,50.55,16a5.68,5.68,0,0,1-1.94.63,21.44,21.44,0,0,1-2.62.13H42.8ZM53.42,27.57a4.09,4.09,0,0,1-2,1.74,8.28,8.28,0,0,1-2.2.57A26.15,26.15,0,0,1,46.4,30H42.8V19.72h3.12l1.87,0c.51,0,1,0,1.36.09a7.56,7.56,0,0,1,1.05.2,9.59,9.59,0,0,1,.93.31,4.8,4.8,0,0,1,2.18,1.72,4.6,4.6,0,0,1,.87,2.75A5.28,5.28,0,0,1,53.42,27.57Z"></path> <polygon class="belton-logo-1" points="60.86 32.97 60.86 4.82 76.17 4.82 76.17 7.78 64.02 7.78 64.02 17.28 75.77 17.28 75.77 20.25 64.02 20.25 64.02 30.01 76.17 30.01 76.17 32.97 60.86 32.97"></polygon> <polygon class="belton-logo-1" points="84.22 4.82 84.22 30.01 95.45 30.01 95.45 32.97 81.05 32.97 81.05 4.82 84.22 4.82"></polygon> <polygon class="belton-logo-1" points="109.22 4.82 109.22 7.78 103.01 7.78 103.01 32.97 99.85 32.97 99.85 7.78 93.61 7.78 93.61 4.82 109.22 4.82"></polygon> <path class="belton-logo-1" d="M136.67,13.11a14.71,14.71,0,0,0-7.86-7.68,14.6,14.6,0,0,0-15.6,2.93A15.09,15.09,0,0,0,109.93,13a14.32,14.32,0,0,0-1.25,6,13.6,13.6,0,0,0,1.18,5.6A14.92,14.92,0,0,0,113,29.22a15.12,15.12,0,0,0,4.64,3.1,14,14,0,0,0,5.59,1.14,14.37,14.37,0,0,0,5.55-1.1,14.71,14.71,0,0,0,7.86-7.68,14,14,0,0,0,1.19-5.78A14,14,0,0,0,136.67,13.11Zm-2.88,10.35a11.6,11.6,0,0,1-6.14,6.13,11,11,0,0,1-4.39.9,10.79,10.79,0,0,1-4.41-.92,11.8,11.8,0,0,1-3.62-2.48,12,12,0,0,1-2.47-3.66,10.88,10.88,0,0,1-.92-4.4,11.63,11.63,0,0,1,.94-4.68,12,12,0,0,1,2.52-3.73,11.63,11.63,0,0,1,3.64-2.46,11.13,11.13,0,0,1,8.76,0,11.74,11.74,0,0,1,3.64,2.52,12,12,0,0,1,2.47,3.71,11.4,11.4,0,0,1,.9,4.49A11.28,11.28,0,0,1,133.79,23.46Z"></path> <polygon class="belton-logo-1" points="160.29 4.82 163.45 4.82 163.45 32.97 160.4 32.97 160.33 32.87 144.55 9.01 144.55 32.97 141.39 32.97 141.39 4.82 145.4 4.82 145.47 4.92 160.29 27.4 160.29 4.82"></polygon> </g> </g> </svg> 