<svg xmlns="http://www.w3.org/2000/svg" width="154" height="154" viewBox="0 0 154 154">
  <defs>
    <radialGradient id="transparent-icon-v2-a" cx="32.604%" cy="10.274%" r="76.519%" fx="32.604%" fy="10.274%" gradientTransform="scale(-1 -.93284) rotate(-81.629 -.123 .374)">
      <stop offset="0%" stop-color="#FFF"/>
      <stop offset="47.885%" stop-color="#FFF" stop-opacity=".8"/>
      <stop offset="66.348%" stop-color="#FFF" stop-opacity=".7"/>
      <stop offset="100%" stop-color="#FFF" stop-opacity=".5"/>
    </radialGradient>
    <linearGradient id="transparent-icon-v2-b" x1="82.489%" x2="85.377%" y1="11.372%" y2="104.32%">
      <stop offset="0%" stop-color="#FFF"/>
      <stop offset="100%" stop-color="#FFF" stop-opacity=".2"/>
    </linearGradient>
  </defs>
  <g fill="none" fill-rule="evenodd">
    <path fill="url(#transparent-icon-v2-a)" fill-opacity=".8" d="M71.0077804,76.2660434 C68.1865254,73.1959804 65.3018414,70.1983412 62.2581958,67.1918699 C60.3538753,69.3667641 58.446045,71.6235258 56.49,74 C39.528,94.611 35.324,121.167 40.323,130.167 C31.649,125.983 6.582,104.437 26.796,69.819 C31.2727531,62.1525005 36.2558879,55.0779282 41.522066,48.5592983 C26.302167,35.9148209 15.6226324,28.8900746 7.657,33.727 C8.604,30.005 12.812,23.049 23.172,23.048 C29.215,23.047 37.35,25.413 48.157,32.167 C49.796456,33.19166 51.4531888,34.2954863 53.1207691,35.4677032 C55.4322736,33.0774951 57.7652446,30.7790782 60.1035996,28.5698613 C47.8069991,21.4502016 35.8475775,18.2873129 31.49,20.561 C33.556,16.908 40.235,11.356 51.007,11.356 C56.9476328,11.3551007 64.1320485,13.0427703 72.4758864,17.6676931 C80.9550031,10.678382 89.1225114,4.83203209 96.18,1.77635684e-15 C104.687,2.031 123.923,13.005 125.657,14.5 C114.01189,22.6749767 104.658576,29.4424694 96.8128787,35.466325 C99.9400926,38.1878611 103.006707,41.004512 105.975922,43.8530957 C116.046087,35.9070741 125.410068,29.2785006 133.323,23.047 C139.656,28.61 145.656,36.5 148.157,43.667 C139.977524,50.0679601 131.937806,56.5072067 124.198502,62.9361893 C129.655015,69.1605511 134.129934,74.7819958 137.157,79 C132.323,81.833 122.824,88.167 121.657,89.334 C117.729222,83.9991664 113.971824,79.155956 110.353239,74.7261366 C107.405417,77.3058951 104.522429,79.8791508 101.714808,82.4427212 C106.245672,87.862523 109.955967,92.6360032 112.49,96.167 C108.704,98.917 101.883,105.79 98.657,109.833 C94.7185847,104.769576 91.1041966,100.154928 87.6605934,95.8587137 C87.0229459,96.4988127 86.3913572,97.1379255 85.766,97.776 C69.064,114.818 53.103,143.114 63.98,150.616 C54.42,150.616 27.157,132.167 59.978,89.546 C63.6202333,84.8159567 67.307038,80.4019219 71.0077804,76.2660434 Z M84.0492896,62.7889028 C86.9117728,60.0476165 89.761011,57.4468818 92.5827181,54.9690464 C89.4515087,51.8398243 86.3991358,48.971108 83.3968825,46.2917254 C80.4085407,48.8520787 77.6510739,51.3392512 75.0382376,53.826253 C78.1167589,56.7622722 81.1346233,59.7735892 84.0492896,62.7889028 Z" opacity=".3"/>
    <path fill="#FFF" d="M20.9898,36.6672 C11.5038,35.8192 10.2348,45.4222 12.1568,50.3442 C6.8228,49.6782 2.6568,41.3342 6.4898,36.6672 C10.3228,32.0002 18.1568,34.0832 20.9898,36.6672 Z M66.9976,130.1668 C64.8306,142.7138 80.9876,145.7898 87.7396,142.3148 C87.7266,151.4498 76.5086,155.5368 69.1016,151.4498 C61.6956,147.3618 63.7766,134.3718 66.9976,130.1668 Z" opacity=".3"/>
    <path fill="url(#transparent-icon-v2-b)" d="M72.4758864,17.6676931 C73.4104193,18.1856972 74.3594967,18.740548 75.323,19.334 C82.5148563,23.7633628 89.8155678,29.3767404 96.8128787,35.466325 C91.7919477,39.3213503 87.3884588,42.8718202 83.3968825,46.2917254 C79.1034166,42.4599907 74.912452,39.0154682 70.74,35.75 C67.2851753,33.0461653 63.6801253,30.6406487 60.1035996,28.5698613 C64.2405296,24.6613974 68.394311,21.0321237 72.4758884,17.6676915 L72.4758864,17.6676931 Z M53.1207691,35.4677032 C60.3981209,40.5832794 67.8820603,47.0013291 75.0382376,53.826253 C70.4917744,58.153758 66.3832192,62.4807463 62.2581958,67.1918699 C56.7632919,61.7640794 50.7502753,56.307502 43.657,50.344 C42.9355787,49.7375546 42.2239937,49.14245 41.522066,48.5592983 C45.271679,43.9179172 49.1647863,39.558382 53.1207691,35.4677032 L53.1207691,35.4677032 Z M92.582722,54.969043 C97.1389538,50.9680637 101.623404,47.2875176 105.97593,43.8530892 C112.689954,50.2943549 118.905975,56.8988892 124.19851,62.9361987 C119.458419,66.8737409 114.831029,70.8074411 110.353239,74.7261366 C104.065847,67.0292031 98.1975332,60.5802979 92.5827176,54.9690459 L92.582722,54.969043 Z M84.0492917,62.788905 C90.6261729,69.5928948 96.6776008,76.4172339 101.714808,82.4427212 C96.7779633,86.950433 92.0741396,91.4281993 87.6605888,95.8587183 C81.8696033,88.6339163 76.5615931,82.3096502 71.0077804,76.2660434 C75.3522626,71.4107336 79.7159531,66.9387666 84.0492898,62.7889026 L84.0492917,62.788905 Z" opacity=".2"/>
  </g>
</svg>
