<svg class="search-icon" xmlns="http://www.w3.org/2000/svg" width="24" height="24" viewBox="0 0 24 24">
  <path fill="#1365C3" d="M16.1253171,14.5077506 L23.8087832,22.1912168 L22.1912168,23.8087832 L14.5077506,16.1253171 C12.98575,17.303411 11.0758801,18.0045166 9.0022583,18.0045166 C4.03044833,18.0045166 0,13.9740683 0,9.0022583 C0,4.03044833 4.03044833,0 9.0022583,0 C13.9740683,0 18.0045166,4.03044833 18.0045166,9.0022583 C18.0045166,11.0758801 17.303411,12.98575 16.1253171,14.5077506 Z M9.0022583,15.9039897 C12.8139793,15.9039897 15.9039897,12.8139793 15.9039897,9.0022583 C15.9039897,5.19053732 12.8139793,2.10052694 9.0022583,2.10052694 C5.19053732,2.10052694 2.10052694,5.19053732 2.10052694,9.0022583 C2.10052694,12.8139793 5.19053732,15.9039897 9.0022583,15.9039897 Z"/>
</svg>
